PathFileType	4	(X/Y/Z)	C:/Users/beibeiliu/ov580/test_trc/User2\sequence.29_training_dense_right.trc
DataRate	CameraRate	NumFrames	NumMarkers	Units	OrigDataRate	OrigDataStartFrame	OrigNumFrames
120	120	12	19	mm	120	183	365
Frame#	Time	ThumbCMC			ThumbMCP			ThumbIP			ThumbTip			IndexMCP			IndexPIP			IndexTip			MiddleMCP			MiddlePIP			MiddleTip			RingMCP			RingPIP			RingTip			PinkyMCP			PinkyPIP			PinkyTip			BackHand1			BackHand2			BackHand3	
		X0	Y0	Z0	X1	Y1	Z1	X2	Y2	Z2	X3	Y3	Z3	X4	Y4	Z4	X5	Y5	Z5	X6	Y6	Z6	X7	Y7	Z7	X8	Y8	Z8	X9	Y9	Z9	X10	Y10	Z10	X11	Y11	Z11	X12	Y12	Z12	X13	Y13	Z13	X14	Y14	Z14	X15	Y15	Z15	X16	Y16	Z16	X17	Y17	Z17	X18	Y18	Z18	
182	1.51667	133.652	-14.0665	72.3133	137.21	1.77439	50.3926	136.058	17.7195	14.081	129.419	30.9366	-5.77808	83.6062	-35.4451	4.56575	66.8108	-32.974	-20.197	46.6185	-19.9822	-36.5248	61.5607	-52.7567	17.6816	36.5496	-52.6496	-8.37734	11.5043	-29.5573	-30.6101	44.1141	-57.7102	37.0835	16.0214	-56.4915	15.0677	-5.30758	-32.629	2.75065	23.7821	-54.4492	65.0758	-0.785598	-49.0674	51.8302	-21.2605	-42.2767	41.4733	75.6443	-60.0401	74.4102	94.2909	-64.5548	105.796	113.324	-48.7414	70.7377	
183	1.525	128.786	-11.2015	72.8172	134.391	6.49311	47.0911	135.947	22.743	16.8116	128.693	36.55	-5.17619	82.4613	-32.8975	8.76465	68.6992	-27.4328	-21.8379	47.68	-11.672	-37.8759	58.5868	-51.3945	16.0637	34.786	-49.4617	-13.6742	8.05961	-28.5559	-29.1712	40.039	-58.381	31.7722	16.4103	-55.1124	10.765	-3.83306	-36.7557	-3.81132	24.4503	-52.3038	66.6647	-2.38225	-50.7478	52.7632	-25.6838	-42.7702	37.293	75.2337	-58.0142	73.5883	94.8363	-62.1334	103.223	111.706	-43.829	67.6352	
184	1.53333	129.332	-6.57261	69.5418	131.068	9.08759	45.7865	132.203	26.8279	15.8831	124.959	39.3458	-3.21374	83.597	-28.0398	4.46469	64.1409	-23.0934	-22.9665	41.3952	-3.29792	-30.3398	58.55	-48.0929	12.3143	36.0024	-46.3231	-11.7745	7.90658	-24.754	-31.8463	42.7881	-52.884	32.0837	20.8125	-52.7683	8.2669	-4.61734	-38.222	-7.10134	26.6097	-48.6674	61.7343	-2.75794	-50.6312	52.8471	-25.2124	-45.2503	40.8576	76.4095	-52.4173	72.8913	96.07	-57.9564	97.4354	110.728	-39.3885	68.6551	
185	1.54167	130.218	-5.7787	74.1025	136.218	12.3041	49.9259	131.773	27.3459	20.3134	125.979	41.4959	-2.30152	82.4159	-27.7015	4.47037	63.8829	-21.3331	-18.8993	37.8	7.72853	-16.4869	62.7319	-45.5968	9.07331	35.7318	-42.7753	-14.4515	12.0252	-23.5681	-28.4697	42.4936	-53.3664	29.1694	23.4	-54.3262	12.6229	1.62792	-39.0242	-9.78557	29.626	-47.9722	61.027	0.290363	-49.3028	48.4778	-21.3896	-45.3968	39.882	77.1003	-52.1851	71.0066	97.5513	-57.434	102.83	114.79	-38.8928	70.2736	
186	1.55	132.264	-7.48785	75.8703	136.744	10.5413	49.2332	131.439	25.6823	18.4735	127.206	40.2491	-1.68034	83.4755	-27.4595	8.09475	59.3709	-17.1561	-15.2492	41.0201	10.7818	-3.93247	64.7449	-45.9101	13.0438	41.284	-43.4324	-13.5202	10.9597	-19.1982	-27.921	43.694	-55.6425	31.2251	23.8975	-53.9616	12.1186	3.08186	-39.153	-8.59861	26.2492	-52.4468	62.7768	4.14816	-48.6931	46.7731	-17.1988	-47.0565	35.4399	79.85	-53.9068	74.1204	97.7745	-61.6547	101.588	113.475	-41.5032	66.1774	
187	1.55833	130.994	-7.42691	76.7611	132.019	9.44265	49.0755	132.42	27.6216	20.7316	127.591	41.5798	-0.944176	78.6469	-29.7614	11.2462	54.6455	-15.0005	-13.6045	40.8359	11.149	4.13157	61.2817	-46.0219	14.6148	36.0307	-39.4415	-15.2319	8.42455	-16.4881	-23.5517	43.4264	-54.413	30.6493	24.9116	-52.2845	11.3655	-0.829791	-36.2197	-8.21999	23.862	-52.0116	62.3817	-0.808323	-50.3691	49.3111	-22.0085	-47.9252	34.8414	76.4579	-56.7802	76.9406	95.8249	-60.7669	99.6124	111.46	-40.7923	67.6028	
188	1.56667	129.279	-7.20072	75.6487	135.734	11.4994	49.0464	131.333	26.4388	16.828	127.769	41.1561	-3.06179	77.7521	-29.4627	7.98502	51.7681	-16.2398	-9.84345	42.3547	11.3615	7.56181	59.5415	-46.8824	12.1498	32.8679	-43.775	-9.11023	5.67731	-14.5788	-21.3675	43.2452	-51.6815	32.0889	20.5118	-52.3528	13.2272	-4.15627	-35.9447	-5.16543	27.3971	-47.69	61.5896	0.699979	-47.9408	47.0159	-22.0847	-45.6528	33.0063	75.692	-53.3169	78.7177	95.2254	-59.1361	98.2537	110.142	-43.198	72.3155	
189	1.575	131.825	-7.51724	70.4407	134.561	8.57572	45.157	134.187	25.7397	13.84	126.19	38.1385	-4.96709	78.5945	-30.0453	10.8475	53.1882	-17.2584	-11.5795	45.1259	10.762	4.461	59.1716	-48.7538	13.1248	32.6257	-41.9897	-14.2999	7.84757	-19.5551	-23.2398	40.8329	-54.1699	30.6819	20.7623	-52.1034	11.5278	-4.58734	-38.8129	-2.29127	26.8288	-49.5158	66.8151	0.809698	-47.5107	47.4552	-19.8363	-44.8534	37.3326	75.3668	-56.707	77.9185	97.4354	-60.3939	100.387	112.362	-41.9166	69.0833	
190	1.58333	133.139	-10.4009	75.2176	134.866	5.75171	46.2261	134.979	22.7312	17.7601	127.869	35.5792	-6.07307	79.6883	-32.3181	8.43855	55.2946	-21.1977	-12.2092	42.3333	9.4724	3.02151	60.1095	-49.4438	16.9604	30.9361	-45.1474	-11.133	4.47595	-22.0973	-22.6838	40.5068	-55.2343	31.2738	20.8565	-54.1748	13.5024	-5.46038	-40.3514	-5.59523	29.9629	-49.9007	64.3177	2.13511	-50.0062	50.744	-20.6724	-46.6494	40.3563	73.7772	-57.5676	76.8226	98.5934	-61.899	103.348	113.989	-43.7541	68.7647	
191	1.59167	129.395	-12.375	71.2326	134.349	3.90433	50.3927	134.916	21.4861	14.0138	131.705	34.8736	-2.51887	75.575	-35.3487	7.98144	55.525	-24.6081	-12.8909	40.4313	4.42005	-6.29131	55.4869	-51.6584	13.3572	32.4156	-47.5543	-9.63332	6.86899	-25.4472	-25.7156	41.1582	-56.9845	36.1909	20.7331	-54.8985	13.473	-2.05393	-41.9297	-6.09806	25.4214	-53.2671	66.4394	-0.923885	-51.6713	54.4109	-22.3978	-46.3461	37.0987	77.794	-58.7055	75.2175	97.9994	-61.3204	101.749	108.281	-45.716	68.8199	
192	1.6	131.218	-11.1997	71.0567	137.885	6.86404	46.6365	133.149	20.1438	15.6235	131.249	35.1489	-3.67042	80.5421	-32.142	7.24201	56.9481	-27.2157	-12.3516	36.9731	5.50552	-9.52	56.1698	-50.9032	14.2568	32.9709	-45.1854	-11.8498	7.65147	-27.0026	-28.9487	40.1868	-55.3763	31.1406	18.8973	-55.8166	15.698	-2.57466	-41.0985	-8.6038	26.4136	-51.0357	61.4396	-0.937914	-51.315	51.5249	-22.9868	-47.9414	41.674	75.796	-56.2697	76.3	96.1097	-60.3762	98.3586	113.379	-44.8573	71.0205	
193	1.60833	132.477	-14.0292	75.7769	138.222	3.60252	44.6111	138.063	19.9537	20.0405	132.183	33.1648	-3.55229	82.4569	-34.3809	10.4879	60.0509	-27.5627	-14.1148	39.8461	3.8904	-11.556	59.4275	-51.1457	12.637	38.2516	-48.3275	-10.2378	11.5121	-31.0571	-28.0128	43.5329	-57.5852	36.4453	21.7426	-55.5471	12.1395	-2.03632	-44.7612	-8.23123	27.7462	-54.051	67.8245	-0.873468	-54.2749	51.9258	-23.35	-50.2501	40.1414	74.6207	-62.0158	75.0406	96.727	-66.0414	104.037	114.322	-47.5289	72.2805	
